<?xml version="1.0" encoding="utf-8"?>
<!-- Generator: Adobe Illustrator 16.0.0, SVG Export Plug-In . SVG Version: 6.00 Build 0)  -->
<!DOCTYPE svg PUBLIC "-//W3C//DTD SVG 1.1//EN" "http://www.w3.org/Graphics/SVG/1.1/DTD/svg11.dtd">
<svg version="1.1" xmlns="http://www.w3.org/2000/svg" xmlns:xlink="http://www.w3.org/1999/xlink" x="0px" y="0px" width="32px"
	 height="32px" viewBox="0 0 32 32" enable-background="new 0 0 32 32" xml:space="preserve">
<g id="back" display="none">
	<rect x="-379.416" y="-92.491" display="inline" fill="#383838" width="492.5" height="289.5"/>
</g>
<g id="Layer_1">
	<path fill="#2CC3FF" d="M27.905,13.619l-7.145,7.143c-1.973,1.973-5.169,1.973-7.142,0l-2.381-2.382L13.619,16L16,18.38
		c0.657,0.657,1.725,0.658,2.381,0l7.143-7.141c0.656-0.657,0.656-1.726,0-2.383l-2.381-2.381c-0.656-0.656-1.725-0.656-2.382,0
		l-2.55,2.551c-1.182-0.696-2.525-0.994-3.855-0.905l4.025-4.026c1.973-1.973,5.171-1.973,7.143,0l2.382,2.381
		C29.878,8.448,29.878,11.647,27.905,13.619z M13.786,22.976l-2.548,2.548c-0.658,0.658-1.726,0.656-2.382,0l-2.381-2.381
		c-0.658-0.656-0.658-1.723,0-2.381l7.144-7.143c0.655-0.657,1.725-0.657,2.381,0L18.381,16l2.38-2.381l-2.38-2.38
		c-1.974-1.973-5.17-1.973-7.143,0L4.095,18.38c-1.974,1.974-1.974,5.173,0,7.144l2.381,2.382c1.972,1.973,5.17,1.973,7.144,0
		l4.025-4.025C16.314,23.968,14.973,23.67,13.786,22.976z"/>
</g>
</svg>
