<?xml version="1.0" encoding="utf-8"?>
<!-- Generator: Adobe Illustrator 16.0.0, SVG Export Plug-In . SVG Version: 6.00 Build 0)  -->
<!DOCTYPE svg PUBLIC "-//W3C//DTD SVG 1.1//EN" "http://www.w3.org/Graphics/SVG/1.1/DTD/svg11.dtd">
<svg version="1.1" xmlns="http://www.w3.org/2000/svg" xmlns:xlink="http://www.w3.org/1999/xlink" x="0px" y="0px" width="32px"
	 height="32px" viewBox="0 0 32 32" enable-background="new 0 0 32 32" xml:space="preserve">
<g id="back" display="none">
	<rect x="-344.999" y="-169" display="inline" fill="#383838" width="492.5" height="289.5"/>
</g>
<g id="Layer_1">
	<path fill="none" stroke="#2CC3FF" stroke-miterlimit="10" d="M31,16c0,1.237-1.063,2.25-2.36,2.25H3.36C2.063,18.25,1,17.237,1,16
		s1.063-2.25,2.36-2.25H28.64C29.938,13.75,31,14.763,31,16z"/>
	<path fill="#2CC3FF" d="M15,16c0,1.237-1.063,2.25-2.36,2.25H3.36C2.063,18.25,1,17.237,1,16s1.063-2.25,2.36-2.25h9.279
		C13.938,13.75,15,14.763,15,16z"/>
</g>
</svg>
