<?xml version="1.0" encoding="utf-8"?>
<!-- Generator: Adobe Illustrator 16.0.0, SVG Export Plug-In . SVG Version: 6.00 Build 0)  -->
<!DOCTYPE svg PUBLIC "-//W3C//DTD SVG 1.1//EN" "http://www.w3.org/Graphics/SVG/1.1/DTD/svg11.dtd">
<svg version="1.1" xmlns="http://www.w3.org/2000/svg" xmlns:xlink="http://www.w3.org/1999/xlink" x="0px" y="0px" width="32px"
	 height="32px" viewBox="0 0 32 32" enable-background="new 0 0 32 32" xml:space="preserve">
<g id="back" display="none">
	<rect x="-395.416" y="-165.491" display="inline" fill="#383838" width="492.5" height="289.5"/>
</g>
<g id="Layer_1">
	<path fill="#2CC3FF" d="M27.75,22.086V15.25h-11V9.915C18.321,9.571,19.5,8.176,19.5,6.5C19.5,4.567,17.933,3,16,3
		s-3.5,1.567-3.5,3.5c0,1.676,1.179,3.071,2.75,3.415v5.335h-11v6.836C2.678,22.43,1.5,23.825,1.5,25.501C1.5,27.434,3.066,29,5,29
		c1.933,0,3.5-1.566,3.5-3.499c0-1.676-1.179-3.071-2.75-3.415V16.75h9.5v5.336c-1.571,0.344-2.75,1.739-2.75,3.415
		C12.5,27.434,14.067,29,16,29s3.5-1.566,3.5-3.499c0-1.676-1.179-3.071-2.75-3.415V16.75h9.5v5.336
		c-1.571,0.344-2.75,1.739-2.75,3.415C23.5,27.434,25.067,29,27,29c1.934,0,3.5-1.566,3.5-3.499
		C30.5,23.825,29.322,22.43,27.75,22.086z"/>
</g>
</svg>
