<?xml version="1.0" encoding="utf-8"?>
<!-- Generator: Adobe Illustrator 16.0.0, SVG Export Plug-In . SVG Version: 6.00 Build 0)  -->
<!DOCTYPE svg PUBLIC "-//W3C//DTD SVG 1.1//EN" "http://www.w3.org/Graphics/SVG/1.1/DTD/svg11.dtd">
<svg version="1.1" xmlns="http://www.w3.org/2000/svg" xmlns:xlink="http://www.w3.org/1999/xlink" x="0px" y="0px" width="32px"
	 height="32px" viewBox="0 0 32 32" enable-background="new 0 0 32 32" xml:space="preserve">
<g id="back" display="none">
	<rect x="-215.083" y="-169" display="inline" fill="#383838" width="492.5" height="289.5"/>
</g>
<g id="Layer_1">
	<g>
		<path fill="#2CC3FF" d="M10.156,15.599l-0.82,0.801l-0.389,0.378c-0.27,0.263-0.45,0.817-0.387,1.188l0.285,1.666
			c0.055,0.318-0.035,0.506-0.12,0.607c-0.099,0.115-0.24,0.179-0.402,0.179c-0.127,0-0.262-0.038-0.405-0.112L6.425,19.52
			c-0.161-0.084-0.389-0.133-0.626-0.133s-0.465,0.049-0.625,0.133l-1.495,0.786C3.538,20.38,3.4,20.418,3.274,20.418
			c-0.161,0-0.305-0.063-0.403-0.179c-0.084-0.102-0.175-0.289-0.12-0.607l0.213-1.243l0.072-0.423
			C3.1,17.595,2.92,17.04,2.65,16.777l-1.209-1.179c-0.302-0.294-0.278-0.552-0.236-0.679c0.041-0.127,0.174-0.351,0.591-0.411
			l1.672-0.241c0.372-0.054,0.844-0.396,1.011-0.734l0.747-1.515c0.187-0.379,0.438-0.437,0.573-0.437
			c0.134,0,0.386,0.058,0.572,0.437l0.749,1.515c0.166,0.338,0.638,0.681,1.01,0.734l1.672,0.241
			c0.417,0.061,0.549,0.284,0.591,0.411S10.458,15.305,10.156,15.599z"/>
	</g>
	<g>
		<path fill="#2CC3FF" d="M20.406,15.599l-0.82,0.801l-0.389,0.378c-0.27,0.263-0.45,0.817-0.387,1.188l0.285,1.666
			c0.055,0.318-0.035,0.506-0.12,0.607c-0.099,0.115-0.24,0.179-0.402,0.179c-0.127,0-0.262-0.038-0.405-0.112l-1.493-0.786
			c-0.161-0.084-0.389-0.133-0.626-0.133s-0.465,0.049-0.625,0.133l-1.495,0.786c-0.141,0.074-0.278,0.112-0.404,0.112
			c-0.161,0-0.305-0.063-0.403-0.179c-0.084-0.102-0.175-0.289-0.12-0.607l0.213-1.243l0.072-0.423
			c0.063-0.371-0.116-0.926-0.386-1.188l-1.209-1.179c-0.302-0.294-0.278-0.552-0.236-0.679c0.041-0.127,0.174-0.351,0.591-0.411
			l1.672-0.241c0.372-0.054,0.844-0.396,1.011-0.734l0.747-1.515c0.187-0.379,0.438-0.437,0.573-0.437
			c0.134,0,0.386,0.058,0.572,0.437l0.749,1.515c0.166,0.338,0.638,0.681,1.01,0.734l1.672,0.241
			c0.417,0.061,0.549,0.284,0.591,0.411S20.708,15.305,20.406,15.599z"/>
	</g>
	<g>
		<path fill="#2CC3FF" d="M26.299,11.582c0.134,0,0.386,0.058,0.572,0.437l0.749,1.515c0.166,0.338,0.638,0.681,1.01,0.734
			l1.672,0.241c0.417,0.061,0.549,0.284,0.591,0.411s0.065,0.385-0.236,0.679l-0.82,0.801l-0.389,0.378
			c-0.27,0.263-0.45,0.817-0.387,1.188l0.285,1.666c0.055,0.318-0.035,0.506-0.12,0.607c-0.099,0.115-0.24,0.179-0.402,0.179
			c-0.127,0-0.262-0.038-0.405-0.112l-1.493-0.786c-0.161-0.084-0.389-0.133-0.626-0.133s-0.465,0.049-0.625,0.133l-1.495,0.786
			c-0.141,0.074-0.278,0.112-0.404,0.112c-0.161,0-0.305-0.063-0.403-0.179c-0.084-0.102-0.175-0.289-0.12-0.607l0.213-1.243
			l0.072-0.423c0.063-0.371-0.116-0.926-0.386-1.188l-1.209-1.179c-0.302-0.294-0.278-0.552-0.236-0.679
			c0.041-0.127,0.174-0.351,0.591-0.411l1.672-0.241c0.372-0.054,0.844-0.396,1.011-0.734l0.747-1.515
			C25.912,11.64,26.164,11.582,26.299,11.582 M26.299,11.082c-0.201,0-0.704,0.069-1.021,0.716l-0.747,1.515
			c-0.094,0.188-0.426,0.43-0.634,0.46l-1.672,0.241c-0.713,0.104-0.934,0.561-0.995,0.753c-0.063,0.188-0.153,0.687,0.363,1.19
			l1.209,1.179c0.15,0.146,0.277,0.537,0.241,0.746l-0.072,0.423l-0.213,1.243c-0.086,0.503,0.076,0.827,0.228,1.01
			c0.198,0.231,0.483,0.36,0.789,0.36c0.209,0,0.424-0.058,0.638-0.17l1.494-0.786c0.066-0.034,0.209-0.075,0.393-0.075
			s0.324,0.039,0.395,0.076l1.491,0.785c0.22,0.113,0.434,0.17,0.639,0.17c0.31,0,0.587-0.126,0.782-0.354
			c0.156-0.187,0.32-0.511,0.233-1.018l-0.285-1.665c-0.036-0.208,0.091-0.599,0.242-0.746l0.389-0.378l0.821-0.802
			c0.516-0.503,0.425-1.002,0.361-1.193c-0.063-0.19-0.286-0.646-0.993-0.749l-1.673-0.241c-0.208-0.03-0.539-0.271-0.632-0.46
			l-0.75-1.516C27.002,11.151,26.5,11.082,26.299,11.082L26.299,11.082z"/>
	</g>
</g>
</svg>
