<?xml version="1.0" encoding="utf-8"?>
<!-- Generator: Adobe Illustrator 16.0.0, SVG Export Plug-In . SVG Version: 6.00 Build 0)  -->
<!DOCTYPE svg PUBLIC "-//W3C//DTD SVG 1.1//EN" "http://www.w3.org/Graphics/SVG/1.1/DTD/svg11.dtd">
<svg version="1.1" xmlns="http://www.w3.org/2000/svg" xmlns:xlink="http://www.w3.org/1999/xlink" x="0px" y="0px" width="32px"
	 height="32px" viewBox="0 0 32 32" enable-background="new 0 0 32 32" xml:space="preserve">
<g id="back" display="none">
	<rect x="-324.583" y="-50.5" display="inline" fill="#383838" width="492.5" height="289.5"/>
</g>
<g id="Layer_1">
	<g>
		<g>
			<g>
				<path fill="#2CC3FF" d="M26.5,1.5c2.206,0,4,1.794,4,4v21c0,2.206-1.794,4-4,4h-21c-2.206,0-4-1.794-4-4v-21
					c0-2.206,1.794-4,4-4H26.5 M26.5,0.5h-21c-2.75,0-5,2.25-5,5v21c0,2.75,2.25,5,5,5h21c2.75,0,5-2.25,5-5v-21
					C31.5,2.75,29.25,0.5,26.5,0.5L26.5,0.5z"/>
			</g>
		</g>
		<path fill="#2CC3FF" d="M26.858,13.893h-3.621v-1.207c0-0.667-0.54-1.207-1.207-1.207c-0.666,0-1.205,0.541-1.205,1.207v1.207
			h-3.62c-0.665,0-1.205,0.539-1.205,1.205c0,0.667,0.54,1.208,1.205,1.208h0.32c0.688,2.204,1.7,3.925,2.829,5.285
			c-0.885,0.811-1.754,1.476-2.696,2.22c-0.52,0.414-0.602,1.172-0.186,1.695c0.412,0.519,1.18,0.604,1.694,0.187
			c1.021-0.807,1.908-1.485,2.863-2.367c0.963,0.882,1.844,1.56,2.868,2.367c0.518,0.417,1.279,0.332,1.694-0.187
			c0.418-0.523,0.333-1.281-0.188-1.695c-0.939-0.745-1.806-1.409-2.692-2.22c1.128-1.36,2.137-3.081,2.824-5.285h0.322
			c0.667,0,1.207-0.54,1.207-1.208C28.065,14.432,27.525,13.893,26.858,13.893z M22.03,19.801c-0.765-0.964-1.457-2.097-1.979-3.496
			h3.964C23.49,17.706,22.8,18.837,22.03,19.801z"/>
		<path fill="#2CC3FF" d="M12.272,5.978c-0.114-0.562-0.609-0.97-1.185-0.97H8.676c-0.573,0-1.07,0.408-1.183,0.97L5.078,18.043
			c-0.13,0.655,0.295,1.289,0.951,1.42c0.656,0.136,1.285-0.293,1.416-0.947l0.771-3.857h3.33l0.771,3.857
			c0.133,0.663,0.782,1.08,1.419,0.947c0.652-0.132,1.077-0.766,0.95-1.42L12.272,5.978z M8.7,12.248l0.966-4.827h0.433l0.966,4.827
			H8.7z"/>
	</g>
</g>
</svg>
