<?xml version="1.0" encoding="utf-8"?>
<!-- Generator: Adobe Illustrator 16.0.0, SVG Export Plug-In . SVG Version: 6.00 Build 0)  -->
<!DOCTYPE svg PUBLIC "-//W3C//DTD SVG 1.1//EN" "http://www.w3.org/Graphics/SVG/1.1/DTD/svg11.dtd">
<svg version="1.1" xmlns="http://www.w3.org/2000/svg" xmlns:xlink="http://www.w3.org/1999/xlink" x="0px" y="0px" width="32px"
	 height="32px" viewBox="0 0 32 32" enable-background="new 0 0 32 32" xml:space="preserve">
<g id="back" display="none">
	<rect x="-338.999" y="-129.583" display="inline" fill="#383838" width="492.5" height="289.5"/>
</g>
<g id="Layer_1">
	<path fill="none" stroke="#2CC3FF" stroke-miterlimit="10" d="M31,16.474c0,1.237-1.063,2.25-2.36,2.25H3.36
		c-1.298,0-2.36-1.013-2.36-2.25s1.063-2.25,2.36-2.25H28.64C29.938,14.224,31,15.236,31,16.474z"/>
	<path fill="#2CC3FF" d="M8.1,21.906c-1.154,0-2.1-0.99-2.1-2.203v-7.406c0-1.211,0.945-2.203,2.1-2.203
		c1.156,0,2.102,0.992,2.102,2.203v7.406C10.201,20.916,9.256,21.906,8.1,21.906z"/>
</g>
</svg>
