<?xml version="1.0" encoding="utf-8"?>
<!-- Generator: Adobe Illustrator 16.0.0, SVG Export Plug-In . SVG Version: 6.00 Build 0)  -->
<!DOCTYPE svg PUBLIC "-//W3C//DTD SVG 1.1//EN" "http://www.w3.org/Graphics/SVG/1.1/DTD/svg11.dtd">
<svg version="1.1" xmlns="http://www.w3.org/2000/svg" xmlns:xlink="http://www.w3.org/1999/xlink" x="0px" y="0px" width="32px"
	 height="32px" viewBox="0 0 32 32" enable-background="new 0 0 32 32" xml:space="preserve">
<g id="back" display="none">
	<rect x="-171.5" y="-133.5" display="inline" fill="#383838" width="492.5" height="289.5"/>
</g>
<g id="Layer_1">
	<g>
		<g>
			<g>
				<path fill="#2CC3FF" d="M5.546,20.699c-2.591,0-4.699-2.109-4.699-4.699s2.108-4.699,4.699-4.699
					c2.59,0,4.698,2.109,4.698,4.699S8.136,20.699,5.546,20.699z M5.546,12.189c-2.102,0-3.812,1.709-3.812,3.811
					c0,2.1,1.71,3.811,3.812,3.811c2.1,0,3.811-1.711,3.811-3.811C9.356,13.898,7.646,12.189,5.546,12.189z"/>
			</g>
			<circle fill="#2CC3FF" cx="5.545" cy="16" r="2.483"/>
		</g>
		<g>
			<path fill="#2CC3FF" d="M16,20.699c-2.591,0-4.699-2.109-4.699-4.699s2.108-4.699,4.699-4.699S20.698,13.41,20.698,16
				S18.591,20.699,16,20.699z M16,12.189c-2.102,0-3.811,1.709-3.811,3.811c0,2.1,1.709,3.811,3.811,3.811
				c2.101,0,3.811-1.711,3.811-3.811C19.811,13.898,18.101,12.189,16,12.189z"/>
		</g>
		<g>
			<path fill="#2CC3FF" d="M26.455,20.699c-2.591,0-4.699-2.109-4.699-4.699s2.108-4.699,4.699-4.699
				c2.59,0,4.698,2.109,4.698,4.699S29.045,20.699,26.455,20.699z M26.455,12.189c-2.103,0-3.812,1.709-3.812,3.811
				c0,2.1,1.709,3.811,3.812,3.811c2.1,0,3.811-1.711,3.811-3.811C30.266,13.898,28.555,12.189,26.455,12.189z"/>
		</g>
	</g>
</g>
</svg>
