<?xml version="1.0" encoding="utf-8"?>
<!-- Generator: Adobe Illustrator 16.0.0, SVG Export Plug-In . SVG Version: 6.00 Build 0)  -->
<!DOCTYPE svg PUBLIC "-//W3C//DTD SVG 1.1//EN" "http://www.w3.org/Graphics/SVG/1.1/DTD/svg11.dtd">
<svg version="1.1" xmlns="http://www.w3.org/2000/svg" xmlns:xlink="http://www.w3.org/1999/xlink" x="0px" y="0px" width="32px"
	 height="32px" viewBox="0 0 32 32" enable-background="new 0 0 32 32" xml:space="preserve">
<g id="back" display="none">
	<rect x="-173.001" y="-88.75" display="inline" fill="#383838" width="492.5" height="289.5"/>
</g>
<g id="Layer_1">
	<g>
		<path fill="#2CC3FF" d="M25.667,8.266H6.333C3.675,8.266,1.5,10.441,1.5,13.1V18.9c0,2.658,2.175,4.833,4.833,4.833h19.334
			c2.658,0,4.833-2.175,4.833-4.833V13.1C30.5,10.441,28.325,8.266,25.667,8.266z M15.669,17.147c-0.301,0.503-0.713,0.9-1.237,1.19
			c-0.523,0.291-1.109,0.437-1.759,0.437c-0.648,0-1.234-0.144-1.758-0.432c-0.525-0.288-0.937-0.686-1.237-1.191
			c-0.3-0.506-0.45-1.07-0.45-1.695c0-0.618,0.15-1.176,0.45-1.672c0.301-0.497,0.712-0.888,1.237-1.173
			c0.523-0.285,1.109-0.427,1.758-0.427c0.649,0,1.235,0.143,1.759,0.427c0.524,0.285,0.937,0.676,1.237,1.173
			c0.3,0.497,0.449,1.054,0.449,1.672C16.118,16.081,15.969,16.645,15.669,17.147z M21.082,18.656l-1.673-2.473l-0.8,0.891v1.582
			h-1.663v-6.372h1.663v2.763l2.39-2.763h1.928l-2.363,2.627l2.509,3.745H21.082z"/>
		<path fill="#2CC3FF" d="M13.56,13.839c-0.264-0.164-0.553-0.246-0.868-0.246s-0.607,0.082-0.877,0.246
			c-0.271,0.164-0.483,0.389-0.642,0.677c-0.157,0.288-0.235,0.604-0.235,0.95c0,0.351,0.08,0.671,0.24,0.959
			c0.161,0.288,0.374,0.516,0.642,0.682c0.266,0.167,0.557,0.25,0.872,0.25s0.604-0.083,0.868-0.25
			c0.264-0.166,0.472-0.394,0.622-0.682c0.152-0.288,0.228-0.608,0.228-0.959c0-0.346-0.075-0.662-0.228-0.95
			C14.031,14.228,13.823,14.002,13.56,13.839z"/>
	</g>
</g>
</svg>
