<?xml version="1.0" encoding="utf-8"?>
<!-- Generator: Adobe Illustrator 16.0.0, SVG Export Plug-In . SVG Version: 6.00 Build 0)  -->
<!DOCTYPE svg PUBLIC "-//W3C//DTD SVG 1.1//EN" "http://www.w3.org/Graphics/SVG/1.1/DTD/svg11.dtd">
<svg version="1.1" id="Layer_1" xmlns="http://www.w3.org/2000/svg" xmlns:xlink="http://www.w3.org/1999/xlink" x="0px" y="0px"
	 width="100px" height="100px" viewBox="0 0 100 100" enable-background="new 0 0 100 100" xml:space="preserve">
<path fill="#2CC3FF" d="M89.925,58.897H64.408c-3.34,0-6.075,2.733-6.075,6.074v25.517c0,3.342,2.734,6.075,6.075,6.075h25.518
	c3.34,0,6.074-2.733,6.074-6.075V64.972C96,61.631,93.265,58.897,89.925,58.897z M61.702,89.367l7.099-9.127l4.057,4.563
	l7.605-9.634l11.662,14.197H61.702z M89.082,75.677c-1.961,0-3.549-1.588-3.549-3.549c0-1.96,1.588-3.549,3.549-3.549
	c1.96,0,3.549,1.59,3.549,3.549C92.631,74.088,91.042,75.677,89.082,75.677z"/>
<path fill="#2CC3FF" d="M31.88,9.036c-6.745-6.745-17.663-6.746-24.409,0c-6.745,6.745-6.746,17.663,0,24.409
	c6.745,6.745,17.663,6.747,24.409,0C38.625,26.7,38.626,15.782,31.88,9.036z M31.159,30.984c-0.807-0.721-1.669-1.359-2.579-1.909
	c0.601-2.076,0.957-4.36,1.042-6.735h5.074C34.466,25.541,33.237,28.543,31.159,30.984L31.159,30.984z M4.655,22.34h5.074
	c0.084,2.375,0.44,4.659,1.041,6.735c-0.909,0.55-1.772,1.188-2.578,1.909C6.114,28.543,4.884,25.541,4.655,22.34z M8.192,11.496
	c0.806,0.721,1.669,1.359,2.578,1.909c-0.601,2.076-0.957,4.36-1.041,6.735H4.655C4.884,16.939,6.114,13.937,8.192,11.496z
	 M18.576,13.633c-1.794-0.128-3.523-0.57-5.127-1.299c0.933-2.401,2.652-5.281,5.127-5.995V13.633z M18.576,15.836v4.304H11.93
	c0.076-2.009,0.361-3.938,0.834-5.702C14.586,15.234,16.546,15.71,18.576,15.836z M18.576,22.34v4.304
	c-2.03,0.126-3.989,0.602-5.812,1.398c-0.473-1.765-0.758-3.693-0.834-5.702H18.576z M18.576,28.848v7.294
	c-2.475-0.714-4.194-3.594-5.127-5.995C15.052,29.418,16.782,28.976,18.576,28.848z M20.775,28.848
	c1.794,0.128,3.523,0.57,5.127,1.299c-0.933,2.401-2.652,5.281-5.127,5.995V28.848z M20.775,26.644V22.34h6.646
	c-0.076,2.009-0.361,3.938-0.834,5.702C24.765,27.246,22.805,26.771,20.775,26.644L20.775,26.644z M20.775,20.14v-4.304
	c2.029-0.126,3.989-0.602,5.811-1.398c0.474,1.765,0.758,3.693,0.834,5.702H20.775z M20.775,13.633V6.338
	c2.475,0.714,4.194,3.594,5.127,5.995C24.299,13.063,22.569,13.504,20.775,13.633z M25.716,7.437
	c1.408,0.617,2.721,1.453,3.899,2.49c-0.561,0.494-1.152,0.942-1.77,1.343C27.297,9.912,26.596,8.592,25.716,7.437z M11.506,11.269
	c-0.618-0.4-1.209-0.849-1.77-1.343c1.177-1.037,2.491-1.873,3.899-2.49C12.755,8.592,12.054,9.912,11.506,11.269L11.506,11.269z
	 M11.506,31.211c0.548,1.357,1.249,2.677,2.129,3.833c-1.408-0.617-2.722-1.453-3.899-2.49
	C10.297,32.06,10.888,31.612,11.506,31.211z M27.845,31.211c0.618,0.4,1.209,0.849,1.77,1.343c-1.178,1.037-2.491,1.873-3.899,2.49
	C26.596,33.889,27.297,32.569,27.845,31.211L27.845,31.211z M29.622,20.14c-0.084-2.375-0.44-4.659-1.042-6.735
	c0.91-0.55,1.772-1.188,2.579-1.909c2.078,2.441,3.308,5.443,3.537,8.644H29.622z"/>
<path fill="#2CC3FF" d="M92.555,29.77c-0.407-0.761-1.2-1.234-2.063-1.234H79.66c-2.132-4.866-5.534-9.035-9.914-12.128
	c-4.94-3.491-10.76-5.336-16.829-5.336c-4.243,0-8.334,0.89-12.161,2.646c-1.174,0.538-1.689,1.927-1.15,3.101
	c0.539,1.174,1.926,1.688,3.101,1.15c3.211-1.474,6.646-2.22,10.211-2.22c9.013,0,17.282,5.02,21.533,12.786h-9.008
	c-0.862,0-1.655,0.474-2.063,1.234c-0.406,0.761-0.362,1.684,0.117,2.4l12.525,18.789C76.455,51.609,77.185,52,77.967,52
	c0.782,0,1.513-0.391,1.946-1.041l12.526-18.788C92.917,31.454,92.962,30.531,92.555,29.77z"/>
</svg>
