<?xml version="1.0" encoding="utf-8"?>
<!-- Generator: Adobe Illustrator 16.0.0, SVG Export Plug-In . SVG Version: 6.00 Build 0)  -->
<!DOCTYPE svg PUBLIC "-//W3C//DTD SVG 1.1//EN" "http://www.w3.org/Graphics/SVG/1.1/DTD/svg11.dtd">
<svg version="1.1" xmlns="http://www.w3.org/2000/svg" xmlns:xlink="http://www.w3.org/1999/xlink" x="0px" y="0px" width="32px"
	 height="32px" viewBox="0 0 32 32" enable-background="new 0 0 32 32" xml:space="preserve">
<g id="back" display="none">
	<rect x="-254.833" y="-127.916" display="inline" fill="#383838" width="492.5" height="289.5"/>
</g>
<g id="Layer_1">
	<g>
		<g>
			<path fill="#2CC3FF" d="M26.5,1.502c2.206,0,4,1.794,4,4v21c0,2.206-1.794,4-4,4h-21c-2.206,0-4-1.794-4-4v-21
				c0-2.206,1.794-4,4-4H26.5 M26.5,0.502h-21c-2.75,0-5,2.25-5,5v21c0,2.75,2.25,5,5,5h21c2.75,0,5-2.25,5-5v-21
				C31.5,2.752,29.25,0.502,26.5,0.502L26.5,0.502z"/>
		</g>
	</g>
	<path fill="#2CC3FF" d="M27.936,7.431c0.192,0.192,0.192,0.507,0,0.699c-0.096,0.097-0.218,0.146-0.344,0.146
		c-0.125,0-0.249-0.049-0.344-0.146l-1.284-1.301L24.685,8.13c-0.097,0.097-0.221,0.146-0.351,0.146
		c-0.122,0-0.248-0.049-0.342-0.146c-0.189-0.192-0.189-0.507,0-0.699l1.281-1.302l-1.281-1.302c-0.189-0.195-0.189-0.507,0-0.699
		c0.19-0.196,0.501-0.196,0.69,0l1.281,1.301l1.284-1.301c0.189-0.196,0.499-0.196,0.688,0c0.192,0.192,0.192,0.504,0,0.699
		l-1.281,1.302L27.936,7.431z"/>
	<g>
		<path fill="#2CC3FF" d="M21.708,17.574H10.292c-1.565,0-2.852,1.283-2.852,2.853v3.424c0,1.569,1.286,2.854,2.852,2.854h11.416
			c1.565,0,2.852-1.285,2.852-2.854v-3.424C24.56,18.857,23.273,17.574,21.708,17.574z M15.807,22.816
			c-0.178,0.297-0.422,0.532-0.733,0.702c-0.309,0.172-0.653,0.259-1.037,0.259c-0.381,0-0.729-0.085-1.037-0.257
			c-0.309-0.168-0.553-0.403-0.73-0.702c-0.176-0.299-0.267-0.632-0.267-1c0-0.365,0.091-0.694,0.267-0.985
			c0.178-0.295,0.422-0.526,0.73-0.692c0.309-0.17,0.656-0.255,1.037-0.255c0.384,0,0.729,0.085,1.037,0.255
			c0.312,0.166,0.556,0.397,0.733,0.692c0.173,0.291,0.262,0.62,0.262,0.985C16.068,22.187,15.979,22.519,15.807,22.816z
			 M18.999,23.705l-0.984-1.458l-0.475,0.527v0.931h-0.983v-3.76h0.983v1.631l1.408-1.631h1.141l-1.395,1.553l1.479,2.207H18.999z"
			/>
		<path fill="#2CC3FF" d="M14.559,20.865c-0.155-0.1-0.324-0.146-0.513-0.146c-0.186,0-0.356,0.046-0.517,0.146
			c-0.159,0.096-0.284,0.228-0.379,0.398c-0.091,0.168-0.14,0.357-0.14,0.56c0,0.207,0.049,0.396,0.144,0.566
			c0.095,0.172,0.22,0.305,0.38,0.401c0.155,0.102,0.326,0.148,0.512,0.148c0.188,0,0.357-0.047,0.513-0.148
			c0.158-0.097,0.281-0.229,0.37-0.401c0.086-0.171,0.133-0.359,0.133-0.566c0-0.202-0.047-0.392-0.133-0.56
			C14.84,21.093,14.717,20.961,14.559,20.865z"/>
	</g>
</g>
</svg>
