<?xml version="1.0" encoding="utf-8"?>
<!-- Generator: Adobe Illustrator 16.0.0, SVG Export Plug-In . SVG Version: 6.00 Build 0)  -->
<!DOCTYPE svg PUBLIC "-//W3C//DTD SVG 1.1//EN" "http://www.w3.org/Graphics/SVG/1.1/DTD/svg11.dtd">
<svg version="1.1" xmlns="http://www.w3.org/2000/svg" xmlns:xlink="http://www.w3.org/1999/xlink" x="0px" y="0px" width="32px"
	 height="32px" viewBox="0 0 32 32" enable-background="new 0 0 32 32" xml:space="preserve">
<g id="back" display="none">
	<rect x="-169.5" y="-169" display="inline" fill="#383838" width="492.5" height="289.5"/>
</g>
<g id="Layer_1">
	<g>
		<path fill="#2CC3FF" d="M16,4.041c0.364,0,1.048,0.16,1.542,1.186l2.03,4.101c0.455,0.911,1.728,1.839,2.733,1.984l4.53,0.657
			c1.125,0.154,1.483,0.762,1.597,1.104c0.114,0.342,0.18,1.046-0.64,1.848l-2.221,2.156l-1.051,1.024
			c-0.731,0.709-1.221,2.218-1.049,3.22l0.775,4.513c0.149,0.856-0.095,1.367-0.33,1.639c-0.269,0.315-0.646,0.486-1.083,0.486
			c-0.344,0-0.708-0.103-1.099-0.307l-4.048-2.129c-0.438-0.224-1.051-0.36-1.688-0.36s-1.25,0.137-1.688,0.36l-4.051,2.129
			c-0.384,0.204-0.755,0.307-1.097,0.307c-0.436,0-0.826-0.171-1.091-0.486c-0.228-0.271-0.473-0.782-0.325-1.639l0.581-3.367
			l0.195-1.146c0.172-1.002-0.315-2.511-1.047-3.22l-3.271-3.181c-0.819-0.802-0.754-1.506-0.64-1.848
			c0.107-0.343,0.472-0.95,1.597-1.104l4.53-0.657c1.006-0.146,2.278-1.073,2.737-1.984l2.01-4.101
			C14.951,4.201,15.635,4.041,16,4.041 M16,2.041c-0.664,0-2.319,0.224-3.35,2.295l-2.015,4.111
			c-0.156,0.31-0.873,0.834-1.228,0.885L4.877,9.989c-1.59,0.218-2.799,1.148-3.218,2.486c-0.43,1.284-0.005,2.746,1.149,3.875
			l3.275,3.185c0.261,0.253,0.531,1.09,0.47,1.448l-0.195,1.147l-0.58,3.363c-0.293,1.698,0.353,2.773,0.763,3.264
			c0.642,0.764,1.598,1.201,2.624,1.201c0.676,0,1.361-0.182,2.036-0.541l4.042-2.124c0.075-0.038,0.36-0.131,0.757-0.131
			s0.684,0.093,0.779,0.142l4.026,2.118c0.683,0.356,1.364,0.536,2.029,0.536c1.027,0,1.952-0.423,2.605-1.189
			c0.413-0.476,1.079-1.554,0.778-3.279l-0.775-4.508c-0.061-0.356,0.211-1.194,0.47-1.444l1.056-1.029l2.218-2.153
			c1.159-1.134,1.584-2.596,1.143-3.916c-0.207-0.629-0.941-2.14-3.222-2.452l-4.515-0.655c-0.355-0.051-1.068-0.572-1.231-0.898
			l-2.027-4.095C18.645,2.907,17.395,2.041,16,2.041L16,2.041z"/>
	</g>
</g>
</svg>
