<?xml version="1.0" encoding="utf-8"?>
<!-- Generator: Adobe Illustrator 16.0.0, SVG Export Plug-In . SVG Version: 6.00 Build 0)  -->
<!DOCTYPE svg PUBLIC "-//W3C//DTD SVG 1.1//EN" "http://www.w3.org/Graphics/SVG/1.1/DTD/svg11.dtd">
<svg version="1.1" xmlns="http://www.w3.org/2000/svg" xmlns:xlink="http://www.w3.org/1999/xlink" x="0px" y="0px" width="32px"
	 height="32px" viewBox="0 0 32 32" enable-background="new 0 0 32 32" xml:space="preserve">
<g id="back" display="none">
	<rect x="-125" y="-87.5" display="inline" fill="#383838" width="492.5" height="289.5"/>
</g>
<g id="Layer_1">
	<g>
		<path fill="#2CC3FF" d="M9.318,3.685H7.229v3.466h2.088c0.59,0,1.037-0.161,1.341-0.482c0.305-0.321,0.457-0.731,0.457-1.229
			c0-0.508-0.151-0.927-0.453-1.258C10.361,3.85,9.913,3.685,9.318,3.685z"/>
		<path fill="#2CC3FF" d="M23.175,6.251c-0.547,0-0.946,0.221-1.2,0.663c-0.254,0.442-0.381,1.008-0.381,1.698v0.152
			c0,0.714,0.126,1.288,0.377,1.72c0.252,0.432,0.657,0.648,1.219,0.648c0.546,0,0.946-0.217,1.2-0.652s0.38-1.006,0.38-1.716V8.612
			c0-0.695-0.128-1.262-0.384-1.701C24.129,6.471,23.726,6.251,23.175,6.251z"/>
		<path fill="#2CC3FF" d="M0,0v14.375h32V0H0z M12.182,7.861c-0.696,0.614-1.651,0.921-2.864,0.921H7.229v3.829H5.112V2.053h4.206
			c1.213,0,2.168,0.31,2.864,0.928c0.696,0.619,1.044,1.433,1.044,2.443C13.226,6.436,12.878,7.248,12.182,7.861z M18.737,6.585
			l-0.776-0.021c-0.314,0-0.573,0.065-0.776,0.196c-0.203,0.13-0.357,0.314-0.463,0.551v5.301h-2.11V4.765h1.965l0.094,1.16
			c0.184-0.411,0.421-0.731,0.714-0.961c0.292-0.229,0.629-0.344,1.012-0.344c0.105,0,0.204,0.008,0.293,0.025
			c0.09,0.017,0.181,0.038,0.272,0.062L18.737,6.585z M26.888,8.768c0,1.18-0.328,2.141-0.983,2.882
			c-0.654,0.742-1.56,1.113-2.715,1.113c-1.16,0-2.068-0.371-2.723-1.113c-0.655-0.742-0.983-1.703-0.983-2.882V8.615
			c0-1.169,0.327-2.128,0.979-2.875c0.652-0.747,1.557-1.12,2.712-1.12c1.16,0,2.069,0.372,2.727,1.117s0.986,1.704,0.986,2.878
			V8.768z"/>
	</g>
	<g>
		<path fill="#2CC3FF" d="M18.784,16.342v8.92c0,1.507-0.499,2.67-1.496,3.488c-0.997,0.819-2.302,1.229-3.915,1.229
			c-1.606,0-2.903-0.409-3.892-1.229C8.494,27.932,8,26.769,8,25.262v-8.92h2.705v8.912c0,0.885,0.237,1.548,0.711,1.988
			c0.474,0.439,1.126,0.659,1.957,0.659c0.843,0,1.505-0.218,1.985-0.655c0.48-0.437,0.72-1.101,0.72-1.992v-8.912H18.784z"/>
		<path fill="#2CC3FF" d="M24,29.784h-2.695V16.342H24V29.784z"/>
	</g>
</g>
</svg>
