<?xml version="1.0" encoding="utf-8"?>
<!-- Generator: Adobe Illustrator 16.0.0, SVG Export Plug-In . SVG Version: 6.00 Build 0)  -->
<!DOCTYPE svg PUBLIC "-//W3C//DTD SVG 1.1//EN" "http://www.w3.org/Graphics/SVG/1.1/DTD/svg11.dtd">
<svg version="1.1" xmlns="http://www.w3.org/2000/svg" xmlns:xlink="http://www.w3.org/1999/xlink" x="0px" y="0px" width="32px"
	 height="32px" viewBox="0 0 32 32" enable-background="new 0 0 32 32" xml:space="preserve">
<g id="back" display="none">
	<rect x="-296.5" y="-129.583" display="inline" fill="#383838" width="492.5" height="289.5"/>
</g>
<g id="Layer_1">
	<g>
		<g>
			<g>
				<path fill="#2CC3FF" d="M14.936,12.921c0,1.1-0.9,2-2,2H3.208c-1.1,0-2-0.9-2-2V3.193c0-1.1,0.9-2,2-2h9.728c1.1,0,2,0.9,2,2
					V12.921z"/>
			</g>
			<g>
				<path fill="#2CC3FF" d="M30.792,12.921c0,1.1-0.9,2-2,2h-9.728c-1.1,0-2-0.9-2-2V3.193c0-1.1,0.9-2,2-2h9.728c1.1,0,2,0.9,2,2
					V12.921z"/>
			</g>
		</g>
		<g>
			<g>
				<path fill="#2CC3FF" d="M14.936,28.807c0,1.1-0.9,2-2,2H3.208c-1.1,0-2-0.9-2-2v-9.728c0-1.1,0.9-2,2-2h9.728c1.1,0,2,0.9,2,2
					V28.807z"/>
			</g>
			<g>
				<path fill="#2CC3FF" d="M30.792,28.807c0,1.1-0.9,2-2,2h-9.728c-1.1,0-2-0.9-2-2v-9.728c0-1.1,0.9-2,2-2h9.728c1.1,0,2,0.9,2,2
					V28.807z"/>
			</g>
		</g>
	</g>
</g>
</svg>
