<?xml version="1.0" encoding="utf-8"?>
<!-- Generator: Adobe Illustrator 16.0.0, SVG Export Plug-In . SVG Version: 6.00 Build 0)  -->
<!DOCTYPE svg PUBLIC "-//W3C//DTD SVG 1.1//EN" "http://www.w3.org/Graphics/SVG/1.1/DTD/svg11.dtd">
<svg version="1.1" xmlns="http://www.w3.org/2000/svg" xmlns:xlink="http://www.w3.org/1999/xlink" x="0px" y="0px" width="32px"
	 height="32px" viewBox="0 0 32 32" enable-background="new 0 0 32 32" xml:space="preserve">
<g id="back" display="none">
	<rect x="-337.501" y="-92.491" display="inline" fill="#383838" width="492.5" height="289.5"/>
</g>
<g id="Layer_1">
	<path fill="#2DB8F4" d="M27.31,12.404c-0.823,0-1.49-0.666-1.49-1.486V5.495c0-0.82,0.667-1.486,1.49-1.486l0,0
		c0.821,0,1.487,0.666,1.487,1.486v5.423C28.797,11.738,28.131,12.404,27.31,12.404L27.31,12.404z"/>
	<g>
		<g>
			<path fill="#2CC3FF" d="M26.5,1.5c2.206,0,4,1.794,4,4v21c0,2.206-1.794,4-4,4h-21c-2.206,0-4-1.794-4-4v-21c0-2.206,1.794-4,4-4
				H26.5 M26.5,0.5h-21c-2.75,0-5,2.25-5,5v21c0,2.75,2.25,5,5,5h21c2.75,0,5-2.25,5-5v-21C31.5,2.75,29.25,0.5,26.5,0.5L26.5,0.5z"
				/>
		</g>
	</g>
	<g>
		<g>
			<path fill="#2CC3FF" d="M24.358,9.08c0,1.1-0.9,2-2,2H6.431c-1.1,0-2-0.9-2-2V6.558c0-1.1,0.9-2,2-2h15.928c1.1,0,2,0.9,2,2V9.08
				z"/>
		</g>
		<g>
			<path fill="#2CC3FF" d="M24.358,17.261c0,1.1-0.9,2-2,2H6.431c-1.1,0-2-0.9-2-2v-2.521c0-1.1,0.9-2,2-2h15.928c1.1,0,2,0.9,2,2
				V17.261z"/>
		</g>
		<g>
			<path fill="#2CC3FF" d="M24.358,25.442c0,1.1-0.9,2-2,2H6.431c-1.1,0-2-0.9-2-2v-2.52c0-1.1,0.9-2,2-2h15.928c1.1,0,2,0.9,2,2
				V25.442z"/>
		</g>
	</g>
</g>
</svg>
